<svg xmlns="http://www.w3.org/2000/svg" viewBox="0 0 216.368 152.023">
  <defs>
    <style>
      .cls-1 {
        isolation: isolate;
      }

      .cls-2, .cls-3, .cls-4, .cls-5 {
        fill: #040505;
      }

      .cls-3, .cls-7 {
        stroke: #040505;
        stroke-miterlimit: 10;
        stroke-width: 0.25px;
      }

      .cls-4 {
        opacity: 0.23;
      }

      .cls-4, .cls-5 {
        mix-blend-mode: color-dodge;
      }

      .cls-5 {
        opacity: 0.14;
      }

      .cls-6 {
        mix-blend-mode: overlay;
      }

      .cls-7 {
        fill: #fff;
        fill-rule: evenodd;
      }
    </style>
  </defs>
  <title>chichi</title>
  <g class="cls-1">
    <g id="Layer_1" data-name="Layer 1">
      <g>
        <path class="cls-2" d="M48.754,102.7q0,8.4-8.4,8.4H27.744v4.2H40.35q8.4,0,8.4,8.4t-8.4,8.4H27.744v4.2H40.35q8.4,0,8.4,8.4t-8.4,8.4H15.138q-8.4,0-8.4-8.4V102.7q0-8.4,8.4-8.4H40.35Q48.753,94.292,48.754,102.7Z" transform="translate(-4.633 -22.107)"/>
        <path class="cls-3" d="M79.468,98.368q2.731-4.16,5.5-4.16,2.73,0,5.5,4.16L114.3,137.993a9.733,9.733,0,0,1,1.639,5q0,3.825-4.538,6.513l-3.613,2.186a9.736,9.736,0,0,1-5,1.639q-3.782,0-6.429-4.412H73.585q-2.647,4.412-6.429,4.412a9.73,9.73,0,0,1-5-1.639l-3.614-2.186Q54,146.818,54,142.993a9.737,9.737,0,0,1,1.639-5Zm9.245,33.7-3.782-8.362-3.74,8.362Z" transform="translate(-4.633 -22.107)"/>
        <path class="cls-2" d="M180.227,94.292h12.606q8.446,0,8.446,8.4t-8.446,8.4h-10.5q-4.2,0-4.2,1.934,0,2.269,4.2,2.269h4.2q21.009,0,21.01,18.741,0,17.06-16.809,18.867l-10.5.21h-8.4q-8.279,0-8.278-8.4t8.278-8.4h10.5q4.2,0,4.2-2.269,0-1.932-4.2-1.933h-2.1q-21.01,0-21.01-19.077Q159.217,94.292,180.227,94.292Z" transform="translate(-4.633 -22.107)"/>
      </g>
      <g>
        <g>
          <g>
            <path class="cls-2" d="M141.506,107.584s6.677.969,8.075-3.583-2.8-22.17,2.8-25.444,8.7,4.833,9.473,12.473-2.951,20.113-8.541,21.828a41.745,41.745,0,0,1-12.205,1.408Z" transform="translate(-4.633 -22.107)"/>
            <path class="cls-2" d="M153.6,78.012c.164.02,3.126.422,4.988,4.287,1.916,3.977,2.1,12.863.776,18.866s-5.047,9.667-9.706,9.69c-3.041.015-3.369-2.192-3.23-3.726a11.6,11.6,0,0,1-4.922.455l-.4,6.682a41.747,41.747,0,0,0,12.205-1.408c5.591-1.715,9.318-14.188,8.541-21.828C161.131,83.968,158.421,76.514,153.6,78.012Z" transform="translate(-4.633 -22.107)"/>
            <path class="cls-2" d="M153.6,78.012s4.057,1.247,4.522,9.9,0,13.721-3.028,17.853a21.2,21.2,0,0,1-6.756,6l-.544-.39s4.426-2.651,6.6-6.159,3.832-8.27,2.8-17.151S153.6,78.012,153.6,78.012Z" transform="translate(-4.633 -22.107)"/>
            <path class="cls-2" d="M153.6,78.012s3.28,8.809,2.271,15.981-1.931,9.823-4.343,12.24a30.819,30.819,0,0,1-5.6,4.249v-.644s3.687-2.123,5.066-4.072a25.5,25.5,0,0,0,3.941-12.006C155.249,88.458,153.6,78.012,153.6,78.012Z" transform="translate(-4.633 -22.107)"/>
            <path class="cls-2" d="M153.6,78.012s-1.534,2.26-.991,7.172,1.708,8.809-.117,14.188-3.378,7.718-6.561,8.809v-.532A9.678,9.678,0,0,0,151,101.321c1.457-4.911,1.845-6.081,1.457-10.836S150.552,80.351,153.6,78.012Z" transform="translate(-4.633 -22.107)"/>
            <g>
              <path class="cls-2" d="M153.6,78.012s-.04.013-.109.043c.037-.014.071-.029.109-.043Z" transform="translate(-4.633 -22.107)"/>
              <path class="cls-2" d="M153.491,78.055a5.664,5.664,0,0,0-2.086,1.322,8.609,8.609,0,0,0-1.677,4.2,18.722,18.722,0,0,0,.038,2.7c.135,2.1.048,3.352.436,7.972a10.787,10.787,0,0,1-.379,4.361q.045.979.058,1.854c1.422-2.374,1.168-8.168.554-14.265C149.805,79.952,152.871,78.319,153.491,78.055Z" transform="translate(-4.633 -22.107)"/>
            </g>
          </g>
          <g>
            <path class="cls-2" d="M122.714,121.123s-8.076,1.559-7.92-3.82,3.261-22.374-3.727-22.686-7.92,14.968-5.125,24.323,11.8,8.887,16.772,7.172Z" transform="translate(-4.633 -22.107)"/>
            <path class="cls-2" d="M114.444,104c-.233,8.312-1.864,16.146.7,17.433s3.261,3.157.932,3.859-5.973-.164-8.513-2.82c3.757,5.651,10.918,5.1,15.152,3.639v-4.989s-8.076,1.559-7.92-3.82,3.261-22.374-3.727-22.686C111.066,94.617,114.677,95.69,114.444,104Z" transform="translate(-4.633 -22.107)"/>
            <path class="cls-2" d="M111.066,94.617S113.318,96,113.007,104s-3.232,19.325,4.814,19.616v1.165s-6.367-1.165-6.134-7.48.7-10.057.777-13.643S112.153,95.708,111.066,94.617Z" transform="translate(-4.633 -22.107)"/>
            <path class="cls-2" d="M111.066,94.617a29.054,29.054,0,0,1,.388,7.874c-.466,3.508-.7,11.148-.777,15.9s4.324,6.055,5.851,6.731v.695s-5.754-1.7-6.278-6.2a69.462,69.462,0,0,1,.291-13.272C110.833,103.134,111.416,97.267,111.066,94.617Z" transform="translate(-4.633 -22.107)"/>
            <path class="cls-2" d="M111.066,94.617a22.3,22.3,0,0,0-1.039,5.71c-.359,4.034-1.933,12.91-1.058,18.418s6.168,7.367,6.168,7.367l-.694.234s-4.774-2.163-5.736-6.432-.263-12.706.261-15.913S109.61,96.566,111.066,94.617Z" transform="translate(-4.633 -22.107)"/>
            <path class="cls-2" d="M111.066,94.617s-2.179,1.559-2.836,6.12-1.706,13.974-1.124,17.073,3.806,6.973,3.806,6.973l-.885.275s-3.213-4.734-3.5-7.248.582-14.91,1.4-18.3S109.785,95.162,111.066,94.617Z" transform="translate(-4.633 -22.107)"/>
            <g>
              <path class="cls-2" d="M110.291,94.922c.248-.109.5-.213.775-.306A3.7,3.7,0,0,0,110.291,94.922Z" transform="translate(-4.633 -22.107)"/>
              <path class="cls-2" d="M105.941,100.678a94.623,94.623,0,0,0-.932,10.583,41.615,41.615,0,0,0,.115,4.215,32.462,32.462,0,0,0,.816,3.463,14.855,14.855,0,0,0,.513,1.436,22.327,22.327,0,0,1-.921-5.315,74.273,74.273,0,0,1,.933-14.149c.7-3.885,2.707-5.421,3.825-5.99A7.14,7.14,0,0,0,105.941,100.678Z" transform="translate(-4.633 -22.107)"/>
            </g>
          </g>
          <g>
            <path class="cls-2" d="M131.566,82.923c-12.735,0-12.424,14.033-11.958,25.1s2.485,32.119,2.951,37.108,2.8,6.549,9.007,6.549,8.541-1.559,9.007-6.549,2.485-26.038,2.951-37.108S144.3,82.923,131.566,82.923Z" transform="translate(-4.633 -22.107)"/>
            <path class="cls-2" d="M131.566,82.923c-.145,0-.28.011-.422.015.086.018.172.039.258.059-.874.443-5.01,3.247-5.426,16.765-.407,13.216,1.439,39.885,1.911,46.4a7.584,7.584,0,0,1-2.355-1.041c-.5-7.087-2.231-32.3-2.351-41.932-.14-11.264,1.951-17.433,7.964-20.254,0,0-8.549.453-8.955,15.577-.335,12.46,1.5,37.3,2.161,45.663a10.037,10.037,0,0,1-2.161-2.994c.159,1.711.289,3.08.37,3.951.466,4.989,2.8,6.549,9.007,6.549s8.541-1.559,9.007-6.549,2.485-26.038,2.951-37.108S144.3,82.923,131.566,82.923Zm6.756,43.306c.145,2.54-.638,9.584-1.252,14.563a12.091,12.091,0,0,1-2.335,3.724c.463-8.373,1.9-35.456,1.607-43.429-.345-9.342-.126-14.209-4.589-18.005a14.172,14.172,0,0,1,1.67.535c1.739.993,4.175,3.378,4.9,9.051C139.486,101.789,138.088,122.136,138.321,126.229Zm-9.169,20.145c-.308-4.625-1.382-20.9-1.78-29.071-.464-9.553-2.159-25.989,4.124-34.284l.064.015c-.046.945-.376,8.025-.417,16.728-.038,8.094-.01,38.477,0,46.521A8.685,8.685,0,0,1,129.152,146.373Zm3.02-.3c-.058-8.765-.253-41.329.015-47.792a111.3,111.3,0,0,0-.608-15.243l.153.039c.639.653,2.944,3.62,3.444,12.865.506,9.356-.749,41.05-1.084,49.157a5.205,5.205,0,0,1-1.905.97Zm8.867-30.875c-.448,6.566-.95,15.2-2.664,21.7.4-3.691.8-7.905.994-11.485.466-8.536,1.048-26.194,0-32.743a24.147,24.147,0,0,0-1.3-5.494C142.573,93.582,141.808,103.93,141.039,115.2Z" transform="translate(-4.633 -22.107)"/>
            <path class="cls-4" d="M131.2,82.936c-12.359.27-12.058,14.128-11.6,25.09.245,5.818.919,14.389,1.57,21.939,1.819,2.962,4.173,4.858,7.176,4.135C137.368,131.93,142.408,91.639,131.2,82.936Z" transform="translate(-4.633 -22.107)"/>
            <path class="cls-5" d="M128.668,83.221c-9.769,2.031-9.488,14.655-9.061,24.8.16,3.8.5,8.783.9,13.884,1.832,3.093,4.756,5.349,8.031-2.346C133.3,108.382,134.295,86.865,128.668,83.221Z" transform="translate(-4.633 -22.107)"/>
          </g>
          <path class="cls-4" d="M155.678,79.708a6.642,6.642,0,0,0-2.94-1.346c-.12.06-.24.124-.363.2a3.914,3.914,0,0,0-.971.819h0a4.8,4.8,0,0,0-.313.4c-.06.086-.115.179-.172.27-.046.074-.092.148-.135.225-.057.1-.111.208-.164.315-.035.071-.068.143-.1.216-.054.12-.108.241-.157.368-.015.038-.028.078-.042.117a11.5,11.5,0,0,0-.46,1.6l-.017.08c-.928,4.392-.243,10.843-.021,15.648q.045.976.058,1.848a12.743,12.743,0,0,1-.3,3.54,4.644,4.644,0,0,1-.461,1.033c-.172.221-.346.42-.518.608,1,1.457,3,2.956,6.493.121C160.568,101.321,159.874,82.769,155.678,79.708Z" transform="translate(-4.633 -22.107)"/>
          <path class="cls-5" d="M153.036,80.389a2.137,2.137,0,0,0-2.1-.361l-.014.021c-.046.074-.092.148-.135.225-.057.1-.111.208-.164.315-.035.071-.068.143-.1.216-.054.12-.108.241-.157.368-.015.038-.028.078-.042.117a11.5,11.5,0,0,0-.46,1.6l-.017.08c-.928,4.392-.243,10.843-.021,15.648q.045.976.058,1.848c.006.433,0,.841-.009,1.226a2.887,2.887,0,0,0,3.164.184C157.656,99.684,156.569,82.845,153.036,80.389Z" transform="translate(-4.633 -22.107)"/>
          <path class="cls-4" d="M111.684,120.376c-.385-6.66.648-14.069.015-19.914-.342-3.164-1.464-4.875-2.861-5.337-4.6,2.531-5.283,13.905-3.346,22.117.013.056.028.111.041.166.055.23.111.459.171.684q.114.431.238.847c.077.258.16.507.247.749a12.287,12.287,0,0,0,1.666,3.2C109.767,123.842,111.9,124.113,111.684,120.376Z" transform="translate(-4.633 -22.107)"/>
          <path class="cls-5" d="M107.255,96.517c-3.149,4.015-3.451,13.569-1.764,20.725.013.056.028.111.041.166.055.23.111.459.171.684q.114.431.238.847c.077.258.16.507.247.749.033.094.072.178.106.27.849.046,1.737-.5,2.558-2.149C111.488,112.532,110.253,97.678,107.255,96.517Z" transform="translate(-4.633 -22.107)"/>
        </g>
        <path class="cls-2" d="M138.061,146.465l-2-4.77,2,3.149.76-4.2v4.293l2.281-3.077S138.869,146.346,138.061,146.465Z" transform="translate(-4.633 -22.107)"/>
        <path class="cls-2" d="M125.189,145.1l2-4.77-2,3.149-.76-4.2v4.293l-2.281-3.077S124.381,144.977,125.189,145.1Z" transform="translate(-4.633 -22.107)"/>
        <path class="cls-2" d="M123.984,132.914l2-4.77-2,3.149-.76-4.2v4.293l-2.281-3.077S123.176,132.8,123.984,132.914Z" transform="translate(-4.633 -22.107)"/>
        <path class="cls-2" d="M114.472,126.291l-1.542-3.534.669,2.7-2.65-1.744,2.311,2.206-2.828-.344S113.993,126.668,114.472,126.291Z" transform="translate(-4.633 -22.107)"/>
        <path class="cls-2" d="M108.357,121.34l.8-3.773-1.025,2.585-1.139-2.969.6,3.145-2.1-1.935S107.749,121.365,108.357,121.34Z" transform="translate(-4.633 -22.107)"/>
        <path class="cls-2" d="M106.1,113.7l1.534-3.537-1.518,2.328-.526-3.137-.042,3.2-1.671-2.316S105.5,113.6,106.1,113.7Z" transform="translate(-4.633 -22.107)"/>
        <path class="cls-2" d="M105.873,106.2l1.891-3.358L106.013,105l-.2-3.175L105.442,105l-1.422-2.478S105.285,106.042,105.873,106.2Z" transform="translate(-4.633 -22.107)"/>
        <path class="cls-2" d="M108.747,99.3l1.891-3.358L108.888,98.1l-.2-3.175-.372,3.179-1.422-2.478S108.159,99.14,108.747,99.3Z" transform="translate(-4.633 -22.107)"/>
        <path class="cls-2" d="M114.586,104.008l-1.891-3.358,1.751,2.157.2-3.175.372,3.179,1.422-2.478S115.173,103.85,114.586,104.008Z" transform="translate(-4.633 -22.107)"/>
        <path class="cls-2" d="M114.463,110.783l-1.891-3.358,1.751,2.157.2-3.175.372,3.179,1.422-2.478S115.051,110.624,114.463,110.783Z" transform="translate(-4.633 -22.107)"/>
        <path class="cls-2" d="M114.463,119.371l-1.891-3.358,1.751,2.157.2-3.175.372,3.179,1.422-2.478S115.051,119.212,114.463,119.371Z" transform="translate(-4.633 -22.107)"/>
        <path class="cls-2" d="M148.937,113.652l2.5-2.928-1.425,2.387,3.042-.892-2.851,1.433,2.8.5S149.286,114.153,148.937,113.652Z" transform="translate(-4.633 -22.107)"/>
        <path class="cls-2" d="M147.481,108.047l2.848-2.591-2.338,1.495.806-3.077-1.349,2.9-.574-2.8S146.973,107.711,147.481,108.047Z" transform="translate(-4.633 -22.107)"/>
        <path class="cls-2" d="M151.321,100.684l1.752-3.434-1.661,2.228-.329-3.164-.242,3.192-1.523-2.417S150.728,100.55,151.321,100.684Z" transform="translate(-4.633 -22.107)"/>
        <path class="cls-2" d="M151.122,92.868l1.752-3.434-1.661,2.228-.329-3.164-.242,3.192-1.523-2.417S150.528,92.734,151.122,92.868Z" transform="translate(-4.633 -22.107)"/>
        <path class="cls-2" d="M151.716,85.817l1.752-3.434-1.661,2.228-.329-3.164-.242,3.192-1.523-2.417S151.122,85.682,151.716,85.817Z" transform="translate(-4.633 -22.107)"/>
        <path class="cls-2" d="M156,90.683l1.752-3.434-1.661,2.228-.329-3.164-.242,3.192L154,87.088S155.405,90.549,156,90.683Z" transform="translate(-4.633 -22.107)"/>
        <path class="cls-2" d="M156,97.31l1.752-3.434L156.09,96.1l-.329-3.164-.242,3.192L154,93.715S155.405,97.176,156,97.31Z" transform="translate(-4.633 -22.107)"/>
        <path class="cls-2" d="M153.151,104.665l2.908-2.522-2.372,1.439.878-3.057-1.418,2.868-.507-2.814S152.651,104.317,153.151,104.665Z" transform="translate(-4.633 -22.107)"/>
        <path class="cls-2" d="M155.676,109.51l.589-3.812.042,2.782,2.116-2.368-1.67,2.727,2.646-1.06S156.236,109.751,155.676,109.51Z" transform="translate(-4.633 -22.107)"/>
        <path class="cls-2" d="M159.534,102.733l-1.668-3.476,1.606,2.268.406-3.155.163,3.2,1.581-2.379S160.131,102.614,159.534,102.733Z" transform="translate(-4.633 -22.107)"/>
        <path class="cls-2" d="M160.68,95.046l-1.668-3.476,1.606,2.268.406-3.155.163,3.2,1.581-2.379S161.277,94.926,160.68,95.046Z" transform="translate(-4.633 -22.107)"/>
        <path class="cls-2" d="M159.716,87.95l-2.448-2.973,2.1,1.816-.358-3.161.921,3.065.968-2.69S160.267,87.69,159.716,87.95Z" transform="translate(-4.633 -22.107)"/>
        <path class="cls-2" d="M157.114,81.914l-2.94-2.485,2.39,1.408-.917-3.045,1.454,2.849.472-2.82S157.609,81.56,157.114,81.914Z" transform="translate(-4.633 -22.107)"/>
        <path class="cls-2" d="M118.2,123.865l-3.436-1.728,2.652.81-1.6-2.747,2.076,2.43-.2-2.853S118.595,123.4,118.2,123.865Z" transform="translate(-4.633 -22.107)"/>
        <path class="cls-2" d="M110.3,108.93l-1.592-3.511,1.556,2.3.475-3.146.094,3.2,1.632-2.344S110.9,108.823,110.3,108.93Z" transform="translate(-4.633 -22.107)"/>
        <path class="cls-2" d="M110.392,115.675l-1.592-3.511,1.556,2.3.475-3.146.094,3.2,1.632-2.344S110.991,115.568,110.392,115.675Z" transform="translate(-4.633 -22.107)"/>
        <path class="cls-2" d="M123.236,121.25l2-4.77-2,3.149-.76-4.2v4.293l-2.281-3.077S122.428,121.131,123.236,121.25Z" transform="translate(-4.633 -22.107)"/>
        <path class="cls-2" d="M122.67,109.311l2-4.77-2,3.149-.76-4.2v4.293l-2.281-3.077S121.863,109.192,122.67,109.311Z" transform="translate(-4.633 -22.107)"/>
        <path class="cls-2" d="M122.564,98.977l2.168-4.694-2.109,3.073-.606-4.223-.157,4.291-2.167-3.159S121.761,98.828,122.564,98.977Z" transform="translate(-4.633 -22.107)"/>
        <path class="cls-2" d="M125.314,89.906l3.124-4.115-2.719,2.545.313-4.255-1.073,4.156-1.439-3.553S124.562,89.587,125.314,89.906Z" transform="translate(-4.633 -22.107)"/>
        <path class="cls-2" d="M132.22,85.84l2.58-4.479-2.376,2.87L132.2,79.97l-.54,4.259-1.875-3.342S131.433,85.619,132.22,85.84Z" transform="translate(-4.633 -22.107)"/>
        <path class="cls-2" d="M131.494,94.612l2.58-4.479L131.7,93l-.226-4.261L130.932,93l-1.875-3.342S130.708,94.391,131.494,94.612Z" transform="translate(-4.633 -22.107)"/>
        <path class="cls-2" d="M130.337,104l2.58-4.479-2.376,2.87-.226-4.261-.54,4.259L127.9,99.049S129.55,103.781,130.337,104Z" transform="translate(-4.633 -22.107)"/>
        <path class="cls-2" d="M131.859,115.686l2.226-4.666-2.147,3.046-.554-4.23-.21,4.288-2.128-3.186S131.058,115.527,131.859,115.686Z" transform="translate(-4.633 -22.107)"/>
        <path class="cls-2" d="M130.7,126.422l2.226-4.666L130.78,124.8l-.554-4.23-.21,4.288-2.128-3.186S129.9,126.263,130.7,126.422Z" transform="translate(-4.633 -22.107)"/>
        <path class="cls-2" d="M131.859,138.765l2.226-4.666-2.147,3.046-.554-4.23-.21,4.288-2.128-3.186S131.058,138.606,131.859,138.765Z" transform="translate(-4.633 -22.107)"/>
        <path class="cls-2" d="M138.959,135.006l-2-4.77,2,3.149.76-4.2v4.293L142,130.4S139.766,134.886,138.959,135.006Z" transform="translate(-4.633 -22.107)"/>
        <path class="cls-2" d="M139.635,123.286l-2-4.77,2,3.148.76-4.2v4.293l2.281-3.077S140.442,123.167,139.635,123.286Z" transform="translate(-4.633 -22.107)"/>
        <path class="cls-2" d="M140.58,111.5l-2-4.77,2,3.149.76-4.2v4.293l2.281-3.077S141.387,111.386,140.58,111.5Z" transform="translate(-4.633 -22.107)"/>
        <path class="cls-2" d="M140.58,99.427l-2-4.77,2,3.149.76-4.2V97.9l2.281-3.077S141.387,99.308,140.58,99.427Z" transform="translate(-4.633 -22.107)"/>
        <path class="cls-2" d="M138.909,89.837l-3.267-4,2.806,2.447-.463-4.241,1.219,4.115,1.313-3.6S139.649,89.491,138.909,89.837Z" transform="translate(-4.633 -22.107)"/>
      </g>
      <g>
        <g>
          <path class="cls-2" d="M22.909,42.618q-.177,8.272-.784,15.845T21.08,73.785Q22.3,68.04,23.866,60.9t3.918-16.106q.346-1.217.87-2.829a32.558,32.558,0,0,1,1.219-3.177,11.5,11.5,0,0,1,2.655-3.917A3.071,3.071,0,0,1,35.141,34a3.44,3.44,0,0,1,2.176,1.786,10.881,10.881,0,0,1,1.261,4.135,46.481,46.481,0,0,1,.3,7.487q-.129,4.179-.435,8.01t-.61,6.573a11.491,11.491,0,0,0-.13,3.177,7.377,7.377,0,0,0,.479-1.742q.391-1.74,1.131-4.614t1.829-6.573q1.089-3.7,2.394-7.617t2.873-7.748a55.572,55.572,0,0,1,3.395-6.965,23.135,23.135,0,0,1,4.57-5.92,6.124,6.124,0,0,1,4.267-1.872q1.958.131,3.439,2.569a18.233,18.233,0,0,1,2,7.312,67.188,67.188,0,0,1,.13,11.144q-.391,5.921-1,12.014T62.128,67.3a91.309,91.309,0,0,0-.217,11.535,25.473,25.473,0,0,0,.521,4.4,7.544,7.544,0,0,0,1.219,3.047,1.59,1.59,0,0,0,2.089.435q1.305-.564,3.134-3.525a58.575,58.575,0,0,0,3.395-6.094q1.654-3.4,2.96-6.443.174-.435.7-.218a.472.472,0,0,1,.261.74q-1.305,2.873-2.918,6.4a52.723,52.723,0,0,1-3.437,6.4q-4.268,6.7-7.662,5.224t-4.789-9.4a53.865,53.865,0,0,1-.826-11.187q.129-6.138.566-12.494t1-12.362q.566-6.008.566-10.8,0-7.4-1.871-8.01t-5.789,5.484a38.646,38.646,0,0,0-2.96,5.659q-1.483,3.4-2.873,7.313t-2.655,8.1q-1.263,4.179-2.308,8.053t-1.827,7.183q-.785,3.31-1.219,5.484-.349,1.743-1.7,1.872t-2.045-2.133a20.9,20.9,0,0,1-.784-6.4q0-4.049.3-8.62t.654-8.967q.346-4.395.347-7.444a13.722,13.722,0,0,0-.217-2.7,1.945,1.945,0,0,0-.654-1.305q-.436-.262-1,.391a10.355,10.355,0,0,0-1.35,2.481q-.7,1.743-1.261,3.569t-.74,2.35q-1.308,4.877-2.7,10.97T23.475,68.344Q22.3,74.309,21.3,79.487T19.775,87.8a2.246,2.246,0,0,1-1,1.35,3.041,3.041,0,0,1-1.741.566,2.663,2.663,0,0,1-1.654-.566,2.438,2.438,0,0,1-.74-2.046q.436-5.831,1.045-11.535t1.133-11.318q.521-5.616.913-11.187t.393-11.056a78.773,78.773,0,0,0-.393-7.966,15.2,15.2,0,0,0-2.393-6.921,3.221,3.221,0,0,0-2.613-1.567,4.264,4.264,0,0,0-2.829,1.175A10.765,10.765,0,0,0,7.5,29.907a12.383,12.383,0,0,0-1.305,4.441.65.65,0,0,1-.74.392q-.568-.044-.391-.654a17.116,17.116,0,0,1,1.915-5.7,11.384,11.384,0,0,1,3.307-3.831,6.675,6.675,0,0,1,4.049-1.305,5.712,5.712,0,0,1,3.962,1.872,12.523,12.523,0,0,1,2.611,3.83A20.535,20.535,0,0,1,22.3,33.476a32.706,32.706,0,0,1,.521,4.745Q22.908,40.617,22.909,42.618Z" transform="translate(-4.633 -22.107)"/>
          <path class="cls-2" d="M102.719,62.056a.5.5,0,0,1,.74.174.426.426,0,0,1-.13.7,27.155,27.155,0,0,0-6.661,5.31,47.337,47.337,0,0,0-4.831,6.356,40.842,40.842,0,0,0,4.135,8.445,13.7,13.7,0,0,0,3.788,4,3.946,3.946,0,0,0,2.785.478A5.346,5.346,0,0,0,105.069,86a12.985,12.985,0,0,0,2.308-3,32.361,32.361,0,0,0,2-4.135q.914-2.263,1.7-4.832t1.305-5.181a.485.485,0,0,1,.654-.3q.476.131.391.566-.436,1.916-1.089,4.309t-1.566,4.875a36.967,36.967,0,0,1-2.134,4.745,16.308,16.308,0,0,1-2.785,3.83,8.167,8.167,0,0,1-3.222,2.177,7.732,7.732,0,0,1-4.179.087A12.676,12.676,0,0,1,93.316,86.3,18.765,18.765,0,0,1,88.7,79.73q-1.483,2.7-2.785,5.093c-.872,1.6-3.375,4.637-4.364,5.973q-.172.26-.61,0t-.261-.522a58.766,58.766,0,0,0,4.624-6.409Q86.612,81.3,88.178,78.6q-1.044-2.437-2-4.832t-1.785-4.484q-.827-2.089-1.394-3.7T82.172,63.1a1.125,1.125,0,0,1,.435-1.305,4.133,4.133,0,0,1,1.654-.87,4.272,4.272,0,0,1,1.915-.087,1.25,1.25,0,0,1,1.131.958,15.989,15.989,0,0,0,.479,1.785q.391,1.263,1,2.873t1.263,3.439q.653,1.829,1.261,3.482a51.351,51.351,0,0,1,4.877-6.137A28.678,28.678,0,0,1,102.719,62.056Z" transform="translate(-4.633 -22.107)"/>
        </g>
        <g class="cls-6">
          <g>
            <path class="cls-2" d="M83.412,53.105c-.119-1.871-1.05-14.621-1.05-14.621l-.06-.019-.058.02L81.685,50.3a.19.19,0,0,1-.189.188.183.183,0,0,1-.186-.184L80.6,38.5l-.063-.025-.064.026-.6,11.8s0,.19-.171.191-.176-.189-.176-.189l-.688-11.8-.063-.022-.064.021-.623,11.808a.188.188,0,0,1-.184.186.2.2,0,0,1-.19-.186L77.063,38.5,77,38.485l-.059.02s-.834,12.757-.938,14.629a.314.314,0,0,0,.244.34,4.741,4.741,0,0,1,2.694,2.9c.9,2.082-.794,26.738-1.257,32.078a4.836,4.836,0,0,0,2.174,4.382h0A4.832,4.832,0,0,0,82,88.432c-.5-5.337-2.391-29.979-1.5-32.067a4.741,4.741,0,0,1,2.672-2.918A.313.313,0,0,0,83.412,53.105ZM78.1,88.262a6.485,6.485,0,0,1,.207-1.366,11.67,11.67,0,0,0,.055,2.616,6.2,6.2,0,0,0,1.471,2.868A4.766,4.766,0,0,1,78.1,88.262ZM82.938,53.3a4.529,4.529,0,0,0-2.673,2.839,5.457,5.457,0,0,1,1.863-2.69c.208-.166.718-.518.765-.935.049-.462.043-1.263.008-3.188.137,1.718.246,3.1.279,3.633A.314.314,0,0,1,82.938,53.3Z" transform="translate(-4.633 -22.107)"/>
            <path class="cls-2" d="M79.863,92.861l-.014-.01a4.887,4.887,0,0,1-2.185-4.406C78.182,82.468,79.8,58.4,78.922,56.38A4.689,4.689,0,0,0,76.244,53.5a.341.341,0,0,1-.263-.366c.1-1.851.93-14.5.939-14.63v-.017L77,38.459l.085.027V38.5l.65,11.807a.171.171,0,0,0,.166.163c.15,0,.157-.155.159-.161l.624-11.826.088-.031.088.031V38.5l.687,11.8c0,.007.011.166.15.166h0c.141,0,.144-.159.146-.166l.6-11.82.088-.036.011,0,.076.032v.016l.715,11.8a.159.159,0,0,0,.159.16h0a.165.165,0,0,0,.164-.163l.558-11.829.083-.028.086.026v.018c.011.128.932,12.771,1.05,14.621h0a.339.339,0,0,1-.259.367,4.688,4.688,0,0,0-2.657,2.9c-.858,2.021.941,26.082,1.5,32.055a4.891,4.891,0,0,1-2.149,4.422ZM76.97,38.523c-.035.536-.835,12.793-.939,14.612a.293.293,0,0,0,.227.314,4.738,4.738,0,0,1,2.71,2.91c.928,2.134-.825,27.143-1.254,32.089a4.836,4.836,0,0,0,2.149,4.35,4.84,4.84,0,0,0,2.114-4.365c-.467-4.944-2.412-29.941-1.5-32.08a4.73,4.73,0,0,1,2.687-2.932.292.292,0,0,0,.226-.316h0c-.116-1.818-1.01-14.068-1.05-14.6l-.037-.012-.033.012L81.709,50.3a.21.21,0,0,1-.213.212h0a.2.2,0,0,1-.208-.21l-.715-11.786-.037-.016-.039.017L79.9,50.3a.2.2,0,0,1-.2.215h0a.209.209,0,0,1-.2-.214l-.687-11.78-.039-.013-.039.013-.624,11.792a.208.208,0,0,1-.208.21.214.214,0,0,1-.215-.211l-.65-11.79L77,38.511ZM80,92.546l-.181-.146a4.807,4.807,0,0,1-1.741-4.139h0a6.492,6.492,0,0,1,.206-1.373l.067-.181-.018.192a11.917,11.917,0,0,0,.055,2.609,6.137,6.137,0,0,0,1.466,2.857ZM78.261,87.2a10.6,10.6,0,0,0-.136,1.061h0A4.779,4.779,0,0,0,79.657,92.2a5.918,5.918,0,0,1-1.32-2.68A10.188,10.188,0,0,1,78.261,87.2ZM80.287,56.15l-.048-.016a5.543,5.543,0,0,1,1.871-2.7l.07-.055c.226-.174.645-.5.685-.863.048-.455.044-1.229.009-3.184l.049,0c.146,1.808.247,3.132.28,3.633a.338.338,0,0,1-.259.366h0A4.52,4.52,0,0,0,80.287,56.15Zm2.652-6.005a22.724,22.724,0,0,1-.023,2.372c-.042.388-.472.72-.7.9-.026.019-.049.038-.07.055a5.741,5.741,0,0,0-1.554,1.92,4.291,4.291,0,0,1,2.34-2.113h0a.291.291,0,0,0,.226-.315C83.127,52.54,83.05,51.533,82.939,50.145Z" transform="translate(-4.633 -22.107)"/>
          </g>
        </g>
      </g>
      <path class="cls-7" d="M137.994,115.251c-.008-.311-.05-.621-.071-.931-.084-1.207-.329-1.466-1.559-1.563-1.585-.124-3.178-.184-4.759-.346-2.273-.232-4.535-.578-6.808-.791q-1.4-.132-2.8-.25-2.458-.211-4.918-.4-1.219-.1-2.438-.2a29.837,29.837,0,0,0-5.973.278c-1.323.154-2.651.258-3.97.444-1.821.257-3.659.588-5.437.969-2.215.475-4.421.985-6.625,1.508a37.42,37.42,0,0,1-15.384,0c-2.2-.524-4.411-1.034-6.626-1.508-1.777-.381-3.617-.713-5.436-.969-1.319-.186-2.647-.291-3.971-.444a29.839,29.839,0,0,0-5.973-.278q-1.22.1-2.437.2-2.46.2-4.919.4-1.4.12-2.8.25c-2.274.213-4.535.559-6.808.791-1.581.162-3.174.222-4.759.346-1.231.1-1.474.356-1.559,1.563-.021.31-.062.619-.07.931-.036,1.317-.072,2.633-.086,3.949-.006.559.127,1.061.764,1.246a3.534,3.534,0,0,1,2.633,3.106c.311,1.9.679,3.781,1.008,5.673a40.177,40.177,0,0,0,2.388,8.659,11.072,11.072,0,0,0,4.673,5.847,26.018,26.018,0,0,0,4.875,2.083,25.156,25.156,0,0,0,8.775,1.078c8.346-.472,15.909-4.392,19.822-11.976a71.162,71.162,0,0,0,3.911-9.524,4.5,4.5,0,0,1,8.564,0,70.977,70.977,0,0,0,3.912,9.525c3.912,7.584,11.474,11.5,19.821,11.976a25.163,25.163,0,0,0,8.776-1.078,26.076,26.076,0,0,0,4.875-2.083,11.086,11.086,0,0,0,4.674-5.847,40.174,40.174,0,0,0,2.387-8.659c.33-1.892.7-3.778,1.008-5.673a3.534,3.534,0,0,1,2.633-3.106c.637-.186.77-.687.764-1.246C138.065,117.883,138.029,116.567,137.994,115.251Zm-102.679,2.8a2.079,2.079,0,0,1-1.933-.874h3.864A2.078,2.078,0,0,1,35.315,118.055Zm-1.933-1.406a2.078,2.078,0,0,1,1.933-.874,2.076,2.076,0,0,1,1.931.874Zm5.019,2.869c-.036.1-.064.209-.1.312a.57.57,0,0,1-.055.093,6.088,6.088,0,0,1,1.589-3.321,9.325,9.325,0,0,1,3.983-2.326,33.57,33.57,0,0,1,7.822-1.573,48.188,48.188,0,0,1,8.871-.2c4.541.364,9.01,1.071,13.091,3.262a6.87,6.87,0,0,1,.663.415c.074.052.146.109.22.162.147.108.295.218.443.334l.029.021.008.008c.32.251.643.513.99.768-.07.029-.1.043-.139.06a5.307,5.307,0,0,1,1.162,2.071,2.957,2.957,0,0,0-.4-.65l-.385-.613a6.479,6.479,0,0,0-.768-1.018c-.123-.115-.243-.235-.371-.342-.066-.054-.131-.109-.2-.16-.1-.086-.213-.164-.32-.243-.186-.13-.375-.257-.563-.382a14.336,14.336,0,0,0-3.018-1.448c-.587-.216-1.185-.4-1.785-.576a41.08,41.08,0,0,0-12.238-1.616,44.323,44.323,0,0,0-11.817,1.493,14.328,14.328,0,0,0-3.786,1.553A7.189,7.189,0,0,0,38.4,119.518Zm37.841,10.175a24.51,24.51,0,0,1-2.768,6.661,19.287,19.287,0,0,1-14.8,8.706,30.4,30.4,0,0,1-6.277,0,13.3,13.3,0,0,1-4.152-1.032c-.536-.252-1.091-.452-1.633-.688-.461-.2-.895-.485-1.343-.712a9.482,9.482,0,0,1-4.95-6.39,39.515,39.515,0,0,1-1.122-14.955,15.88,15.88,0,0,1,.765-2.964,5.489,5.489,0,0,1,3.471-3.205,26.654,26.654,0,0,1,7.26-1.821,50.759,50.759,0,0,1,11.389-.223A32.08,32.08,0,0,1,72.665,115.7a9.587,9.587,0,0,1,1.931,1.212,6.157,6.157,0,0,1,.75.652,8.123,8.123,0,0,1,.665,1.025c.215.328.454.64.65.979a8.068,8.068,0,0,1,.652,2.33A25.136,25.136,0,0,1,76.242,129.693Zm53.337,6.543a9.478,9.478,0,0,1-4.95,6.39c-.448.227-.882.511-1.343.712-.542.236-1.1.436-1.633.688a13.291,13.291,0,0,1-4.151,1.032,30.407,30.407,0,0,1-6.278,0,19.287,19.287,0,0,1-14.8-8.706,24.487,24.487,0,0,1-2.768-6.661,25.136,25.136,0,0,1-1.071-7.791,8,8,0,0,1,.652-2.33c.2-.34.436-.651.65-.979a7.975,7.975,0,0,1,.665-1.025,6.141,6.141,0,0,1,.75-.652,9.558,9.558,0,0,1,1.932-1.212,32.061,32.061,0,0,1,10.584-2.637,50.751,50.751,0,0,1,11.389.223,26.67,26.67,0,0,1,7.262,1.821,5.491,5.491,0,0,1,3.47,3.205,15.871,15.871,0,0,1,.766,2.964A39.488,39.488,0,0,1,129.579,136.236Zm2.014-16.405c-.035-.1-.064-.209-.1-.312a7.19,7.19,0,0,0-2.923-3.917,14.347,14.347,0,0,0-3.786-1.553,44.343,44.343,0,0,0-11.818-1.493,41.08,41.08,0,0,0-12.239,1.616c-.6.176-1.2.36-1.785.576a14.37,14.37,0,0,0-3.018,1.448c-.188.125-.377.252-.563.382-.107.079-.216.158-.32.243-.068.051-.133.105-.2.16-.126.107-.247.227-.37.342a6.511,6.511,0,0,0-.768,1.018l-.385.613a3.077,3.077,0,0,0-.4.65,5.328,5.328,0,0,1,1.162-2.071c-.037-.017-.07-.031-.139-.06.349-.257.673-.519.994-.772l.005,0,.016-.012c.156-.122.312-.239.468-.353.068-.05.136-.1.205-.151a6.375,6.375,0,0,1,.665-.416c4.08-2.192,8.549-2.9,13.09-3.262a48.186,48.186,0,0,1,8.871.2,33.556,33.556,0,0,1,7.822,1.573,9.318,9.318,0,0,1,3.984,2.326,6.089,6.089,0,0,1,1.589,3.321A.673.673,0,0,1,131.593,119.831Zm2.987-1.776a2.076,2.076,0,0,1-1.931-.874h3.864A2.081,2.081,0,0,1,134.58,118.055Zm-1.931-1.406a2.572,2.572,0,0,1,3.864,0Z" transform="translate(-4.633 -22.107)"/>
    </g>
  </g>
</svg>
